<svg width="20" height="20" viewBox="0 0 20 20" fill="none" xmlns="http://www.w3.org/2000/svg">
<path d="M19.6487 7.4397L17.1463 5.40016V2.13837C17.1463 1.77106 16.8474 1.47219 16.4801 1.47219H14.9055C14.5382 1.47219 14.2393 1.77106 14.2393 2.13837V3.03087L10.8955 0.305655C10.6536 0.108587 10.3348 0 9.99788 0C9.66225 0 9.34497 0.107921 9.10442 0.303959L0.351261 7.43963C-0.0464469 7.7637 -0.0225856 8.04598 0.0270143 8.18539C0.0764932 8.3245 0.235831 8.55791 0.746729 8.55791H1.9453V17.9418C1.9453 18.6114 2.48866 19.1562 3.15654 19.1562H6.94164C7.60388 19.1562 8.12259 18.6227 8.12259 17.9418V14.0936C8.12259 13.7638 8.4257 13.4635 8.75849 13.4635H11.3021C11.6193 13.4635 11.8774 13.7462 11.8774 14.0936V17.9418C11.8774 18.6001 12.446 19.1562 13.1189 19.1562H16.8435C17.5113 19.1562 18.0547 18.6114 18.0547 17.9418V8.55791H19.2533C19.7642 8.55791 19.9235 8.3245 19.973 8.18539C20.0226 8.04598 20.0465 7.7637 19.6487 7.4397Z" fill="white"/>
</svg>
